<?xml version="1.0" encoding="UTF-8" standalone="no" ?>
<!DOCTYPE svg PUBLIC "-//W3C//DTD SVG 1.1//EN" "http://www.w3.org/Graphics/SVG/1.1/DTD/svg11.dtd">
<svg xmlns="http://www.w3.org/2000/svg" xmlns:xlink="http://www.w3.org/1999/xlink" version="1.1" width="100" height="100" viewBox="0 0 640 640" xml:space="preserve">
<desc>Created with Fabric.js 5.3.0</desc>
<defs>
</defs>
<g transform="matrix(1 0 0 1 320 320)" id="yCUgYciLUhL8lTqHwpX8u"  >
<g style="" vector-effect="non-scaling-stroke"   >
		<g transform="matrix(2.4376952324 -0.8872485048 0.8906681884 2.4470907359 50.1290368342 166.6613696301)" id="U8h3GgDm3zhO-1ngQ6BXs"  >
<path style="stroke: none; stroke-width: 1; stroke-dasharray: none; stroke-linecap: butt; stroke-dashoffset: 0; stroke-linejoin: miter; stroke-miterlimit: 4; fill: rgb(53,237,53); fill-rule: nonzero; opacity: 1;" vector-effect="non-scaling-stroke"  transform=" translate(0, 0)" d="M -40 -40 L 40 40 L -40 40 z" stroke-linecap="round" />
</g>
		<g transform="matrix(1 0 0 1 -75.6247253988 44.5300452623)" id="sc-iZvhoAsfYsebFU0Lqt"  >
<path style="stroke: rgb(122,237,93); stroke-width: 0; stroke-dasharray: none; stroke-linecap: butt; stroke-dashoffset: 0; stroke-linejoin: miter; stroke-miterlimit: 4; fill: rgb(53,237,53); fill-rule: nonzero; opacity: 1;" vector-effect="non-scaling-stroke"  transform=" translate(-190.487445, -190.487445)" d="M 0 80.81698 C 0 36.183 36.18299 0 80.81698 0 L 300.15791 0 L 300.15791 0 C 344.79189 0 380.97489 36.18299 380.97489 80.81698 L 380.97489 300.15791 L 380.97489 300.15791 C 380.97489 344.79189 344.7919 380.97489 300.15791 380.97489 L 80.81698000000003 380.97489 L 80.81698000000003 380.97489 C 36.18300000000003 380.97489 2.842170943040401e-14 344.7919 2.842170943040401e-14 300.15791 z" stroke-linecap="round" />
</g>
		<g transform="matrix(1 0 0 1 42.1290695108 44.5300455246)" id="Lo2Ef8k211Dqz6jyILHME"  >
<path style="stroke: rgb(122,237,93); stroke-width: 0; stroke-dasharray: none; stroke-linecap: butt; stroke-dashoffset: 0; stroke-linejoin: miter; stroke-miterlimit: 4; fill: rgb(53,237,53); fill-rule: nonzero; opacity: 1;" vector-effect="non-scaling-stroke"  transform=" translate(-190.487445, -190.487445)" d="M 0 80.81698 C 0 36.183 36.18299 0 80.81698 0 L 300.15791 0 L 300.15791 0 C 344.79189 0 380.97489 36.18299 380.97489 80.81698 L 380.97489 300.15791 L 380.97489 300.15791 C 380.97489 344.79189 344.7919 380.97489 300.15791 380.97489 L 80.81698000000003 380.97489 L 80.81698000000003 380.97489 C 36.18300000000003 380.97489 2.842170943040401e-14 344.7919 2.842170943040401e-14 300.15791 z" stroke-linecap="round" />
</g>
		<g transform="matrix(2.9975081065 0 0 1.1004387656 -16.7478280021 -154.7210602214)" id="6solne9fKDWfPcEX9YJYr"  >
<path style="stroke: rgb(232,95,80); stroke-width: 0; stroke-dasharray: none; stroke-linecap: butt; stroke-dashoffset: 0; stroke-linejoin: miter; stroke-miterlimit: 4; fill: rgb(53,237,53); fill-rule: nonzero; opacity: 1;" vector-effect="non-scaling-stroke"  transform=" translate(0, 0)" d="M -83.19055 -83.19055 L 83.19055 -83.19055 L 83.19055 83.19055 L -83.19055 83.19055 z" stroke-linecap="round" />
</g>
		<g transform="matrix(1 0 0 1.0686789337 -134.1304212137 -49.8569264961)" id="1C7iYSbEW-gAbzl7y-gcq"  >
<path style="stroke: rgb(165,61,217); stroke-width: 0; stroke-dasharray: none; stroke-linecap: butt; stroke-dashoffset: 0; stroke-linejoin: miter; stroke-miterlimit: 4; fill: rgb(255,255,255); fill-rule: nonzero; opacity: 1;" vector-effect="non-scaling-stroke"  transform=" translate(0.000005, 0.000005)" d="M -106.82423 -106.82423 L 106.82422 -106.82423 L 106.82422 106.82422 L -106.82423 106.82422 z" stroke-linecap="round" />
</g>
		<g transform="matrix(0.8445697246 -2.4528085811 2.4622623354 0.8478249132 -77.624717601 167.7363397747)" id="HjR6YZV29_iOMmwBPyCDl"  >
<path style="stroke: none; stroke-width: 1; stroke-dasharray: none; stroke-linecap: butt; stroke-dashoffset: 0; stroke-linejoin: miter; stroke-miterlimit: 4; fill: rgb(53,237,53); fill-rule: nonzero; opacity: 1;" vector-effect="non-scaling-stroke"  transform=" translate(0, 0)" d="M -40 -40 L 40 40 L -40 40 z" stroke-linecap="round" />
</g>
		<g transform="matrix(1 0 0 1.0686789337 95.0073855244 -49.8569268564)" id="wHReE3p0j8wVOs7ytFG_J"  >
<path style="stroke: rgb(165,61,217); stroke-width: 0; stroke-dasharray: none; stroke-linecap: butt; stroke-dashoffset: 0; stroke-linejoin: miter; stroke-miterlimit: 4; fill: rgb(255,255,255); fill-rule: nonzero; opacity: 1;" vector-effect="non-scaling-stroke"  transform=" translate(0.000005, 0.000005)" d="M -106.82423 -106.82423 L 106.82422 -106.82423 L 106.82422 106.82422 L -106.82423 106.82422 z" stroke-linecap="round" />
</g>
		<g transform="matrix(0.8580064886 0 0 0.8580064886 -19.7478533512 64.3038723702)" id="KumdVCZvwm6wFpzP_cqok"  >
<path style="stroke: rgb(236,17,87); stroke-width: 0; stroke-dasharray: none; stroke-linecap: butt; stroke-dashoffset: 0; stroke-linejoin: miter; stroke-miterlimit: 4; fill: rgb(53,237,53); fill-rule: nonzero; opacity: 1;" vector-effect="non-scaling-stroke"  transform=" translate(0, 0)" d="M 0 -30.25111 C 16.69861 -30.25111 30.25111 -16.698610000000002 30.25111 0 C 30.25111 16.69861 16.698610000000002 30.25111 0 30.25111 C -16.69861 30.25111 -30.25111 16.698610000000002 -30.25111 0 C -30.25111 -16.69861 -16.698610000000002 -30.25111 0 -30.25111 z" stroke-linecap="round" />
</g>
		<g transform="matrix(1.0940435598 0 0 1.0940435598 -124.2052120457 -78.8120109045)" id="7NNxAFxZmx-U_dNjtiAAW"  >
<path style="stroke: rgb(0,0,0); stroke-width: 0; stroke-dasharray: none; stroke-linecap: butt; stroke-dashoffset: 0; stroke-linejoin: miter; stroke-miterlimit: 4; fill: rgb(53,237,53); fill-rule: nonzero; opacity: 1;" vector-effect="non-scaling-stroke"  transform=" translate(0, 0.0000111121)" d="M -88.56961 118.88498 L -88.56961 -111.77972000000001 L -70.6328 -116.98140000000001 L -70.6328 -116.98140000000001 C -21.30834 -131.28549 31.55919 -126.89277000000001 77.84653 -104.64436 L 88.56961 -99.49022000000001 L 88.56961 125.23663999999998 L 43.29998 116.06980999999998 L 43.29998 116.06980999999998 C 12.305299999999999 109.79356999999997 -19.49078 108.49046999999997 -50.89509 112.20939999999997 L -75.33475 115.10356999999998 z" stroke-linecap="round" />
</g>
		<g transform="matrix(1 0 0 1 -115.8758102478 -90.5897118034)" id="EyaabTj4nvl7azvbfMDb1"  >
<path style="stroke: rgb(0,0,0); stroke-width: 0; stroke-dasharray: none; stroke-linecap: butt; stroke-dashoffset: 0; stroke-linejoin: miter; stroke-miterlimit: 4; fill: rgb(255,255,255); fill-rule: nonzero; opacity: 1;" vector-effect="non-scaling-stroke"  transform=" translate(0, 0.0000111121)" d="M -88.56961 118.88498 L -88.56961 -111.77972000000001 L -70.6328 -116.98140000000001 L -70.6328 -116.98140000000001 C -21.30834 -131.28549 31.55919 -126.89277000000001 77.84653 -104.64436 L 88.56961 -99.49022000000001 L 88.56961 125.23663999999998 L 43.29998 116.06980999999998 L 43.29998 116.06980999999998 C 12.305299999999999 109.79356999999997 -19.49078 108.49046999999997 -50.89509 112.20939999999997 L -75.33475 115.10356999999998 z" stroke-linecap="round" />
</g>
		<g transform="matrix(-1.0949184534 0 0 1.0949184534 85.1596650007 -78.7024421643)" id="RzjMozPUrsNgpw3TP4N6s"  >
<path style="stroke: rgb(0,0,0); stroke-width: 0; stroke-dasharray: none; stroke-linecap: butt; stroke-dashoffset: 0; stroke-linejoin: miter; stroke-miterlimit: 4; fill: rgb(53,237,53); fill-rule: nonzero; opacity: 1;" vector-effect="non-scaling-stroke"  transform=" translate(0, 0.0000111121)" d="M -88.56961 118.88498 L -88.56961 -111.77972000000001 L -70.6328 -116.98140000000001 L -70.6328 -116.98140000000001 C -21.30834 -131.28549 31.55919 -126.89277000000001 77.84653 -104.64436 L 88.56961 -99.49022000000001 L 88.56961 125.23663999999998 L 43.29998 116.06980999999998 L 43.29998 116.06980999999998 C 12.305299999999999 109.79356999999997 -19.49078 108.49046999999997 -50.89509 112.20939999999997 L -75.33475 115.10356999999998 z" stroke-linecap="round" />
</g>
		<g transform="matrix(1 0 0 1 -18.9069392146 64.3038723702)" id="Dd7fCELle2EeKvp3ffGoH"  >
<path style="stroke: rgb(30,13,172); stroke-width: 0; stroke-dasharray: none; stroke-linecap: butt; stroke-dashoffset: 0; stroke-linejoin: miter; stroke-miterlimit: 4; fill: rgb(255,255,255); fill-rule: nonzero; opacity: 1;" vector-effect="non-scaling-stroke"  transform=" translate(-18.90694, -18.90694)" d="M 18.90694 0 C 29.34357 0 37.81388 8.47031 37.81388 18.90694 C 37.81388 29.34357 29.34357 37.81388 18.90694 37.81388 C 8.47031 37.81388 0 29.34357 0 18.90694 C 0 8.47031 8.47031 0 18.90694 0 z" stroke-linecap="round" />
</g>
		<g transform="matrix(1 0 0 0.3637543799 -19.7478533512 83.2108115847)" id="3zN2iAYgftcc-dSDJ8DTS"  >
<path style="stroke: rgb(227,9,139); stroke-width: 0; stroke-dasharray: none; stroke-linecap: butt; stroke-dashoffset: 0; stroke-linejoin: miter; stroke-miterlimit: 4; fill: rgb(53,237,53); fill-rule: nonzero; opacity: 1;" vector-effect="non-scaling-stroke"  transform=" translate(0, 0)" d="M -43.48597 -43.48597 L 43.48597 -43.48597 L 43.48597 43.48597 L -43.48597 43.48597 z" stroke-linecap="round" />
</g>
		<g transform="matrix(-1 0 0 1 76.752770186 -88.1611944771)" id="93fKiLo3vzSsZY_c03igx"  >
<path style="stroke: rgb(0,0,0); stroke-width: 0; stroke-dasharray: none; stroke-linecap: butt; stroke-dashoffset: 0; stroke-linejoin: miter; stroke-miterlimit: 4; fill: rgb(255,255,255); fill-rule: nonzero; opacity: 1;" vector-effect="non-scaling-stroke"  transform=" translate(0, 0.0000111121)" d="M -88.56961 118.88498 L -88.56961 -111.77972000000001 L -70.6328 -116.98140000000001 L -70.6328 -116.98140000000001 C -21.30834 -131.28549 31.55919 -126.89277000000001 77.84653 -104.64436 L 88.56961 -99.49022000000001 L 88.56961 125.23663999999998 L 43.29998 116.06980999999998 L 43.29998 116.06980999999998 C 12.305299999999999 109.79356999999997 -19.49078 108.49046999999997 -50.89509 112.20939999999997 L -75.33475 115.10356999999998 z" stroke-linecap="round" />
</g>
		<g transform="matrix(1 0 0 1 -117.0895320007 134.0393494735)" id="9L1THR_R2eoWbAGQFs0AM"  >
<path style="stroke: rgb(0,0,0); stroke-width: 0; stroke-dasharray: none; stroke-linecap: butt; stroke-dashoffset: 0; stroke-linejoin: miter; stroke-miterlimit: 4; fill: rgb(255,255,255); fill-rule: nonzero; opacity: 1;" vector-effect="non-scaling-stroke"  transform=" translate(0, -0.000005)" d="M -24.08257 23.3945 L -7.115680000000001 -23.394489999999998 L 8.486239999999999 -23.394489999999998 L 24.082569999999997 23.3945 L 11.238529999999997 23.3945 L -0.6880800000000029 -9.633020000000002 L -12.155970000000003 23.3945 z" stroke-linecap="round" />
</g>
		<g transform="matrix(1 0 0 1 -67.2910114132 134.0393494735)" id="edy-aZMw40Hvt1Xu7d1Sl"  >
<path style="stroke: rgb(0,0,0); stroke-width: 0; stroke-dasharray: none; stroke-linecap: butt; stroke-dashoffset: 0; stroke-linejoin: miter; stroke-miterlimit: 4; fill: rgb(255,255,255); fill-rule: nonzero; opacity: 1;" vector-effect="non-scaling-stroke"  transform=" translate(-0.000005, 0.000005)" d="M -21.58751 -23.8945 L -8.333710000000002 -23.8945 L -8.333710000000002 5.045870000000001 L 5.935429999999998 -17.88991 L 5.935429999999998 -23.8945 L 21.587519999999998 -23.8945 L 21.587519999999998 23.894489999999998 L 5.935429999999998 23.894489999999998 L 5.935429999999998 -3.6697300000000013 L -6.449890000000002 17.889899999999997 L -6.449890000000002 23.894489999999998 L -21.587500000000002 23.894489999999998 z" stroke-linecap="round" />
</g>
		<g transform="matrix(1 0 0 1 -14.0342740223 138.1265054368)" id="o2fYIhGUeRhQZ6U-C-_hB"  >
<path style="stroke: rgb(0,0,0); stroke-width: 0; stroke-dasharray: none; stroke-linecap: butt; stroke-dashoffset: 0; stroke-linejoin: miter; stroke-miterlimit: 4; fill: rgb(255,255,255); fill-rule: nonzero; opacity: 1;" vector-effect="non-scaling-stroke"  transform=" translate(-0.000005, 0)" d="M -23.7796 -27.98165 L -9.24791 -27.98165 L -9.24791 5.545870000000004 L 2.2174400000000016 5.545870000000004 L 2.2174400000000016 -28.48165 L 18.275020000000005 -28.48165 L 18.275020000000005 5.545870000000004 L 23.779610000000005 5.545870000000004 L 23.779610000000005 28.481650000000005 L 14.034280000000006 28.481650000000005 L 14.034280000000006 19.807340000000003 L -23.77959999999999 19.807340000000003 z" stroke-linecap="round" />
</g>
		<g transform="matrix(1 0 0 1 33.230761591 134.0393494735)" id="n_G99jM7NBIrS3FiKzc1V"  >
<path style="stroke: rgb(0,0,0); stroke-width: 0; stroke-dasharray: none; stroke-linecap: butt; stroke-dashoffset: 0; stroke-linejoin: miter; stroke-miterlimit: 4; fill: rgb(255,255,255); fill-rule: nonzero; opacity: 1;" vector-effect="non-scaling-stroke"  transform=" translate(0.000005, 0.000005)" d="M -18.89828 -23.8945 L 18.898270000000004 -23.8945 L 18.898270000000004 -14.6789 L -2.843229999999995 -14.6789 L -2.843229999999995 -7.798170000000001 L 13.670530000000007 -7.798170000000001 L 13.670530000000007 4.087149999999999 L -2.843229999999995 4.087149999999999 L -2.843229999999995 11.46788 L 18.898270000000004 11.46788 L 18.898270000000004 23.894489999999998 L -18.89828 23.894489999999998 z" stroke-linecap="round" />
</g>
		<g transform="matrix(1 0 0 1 80.1581744213 133.7893494735)" id="zImAlHFeakPo7jCMMQqIx"  >
<path style="stroke: rgb(0,0,0); stroke-width: 0; stroke-dasharray: none; stroke-linecap: butt; stroke-dashoffset: 0; stroke-linejoin: miter; stroke-miterlimit: 4; fill: rgb(255,255,255); fill-rule: nonzero; opacity: 1;" vector-effect="non-scaling-stroke"  transform=" translate(0.00001, -0.000005)" d="M -21.33028 -23.6445 L -21.33028 24.144489999999998 L -8.027529999999999 24.144489999999998 L -8.027529999999999 19.97477 L 5.001480000000001 0.25 L 5.001480000000001 24.6445 L 21.33026 24.6445 L 21.33026 -24.644489999999998 L 5.001480000000001 -24.644489999999998 L 5.001480000000001 -19.47477 L -8.027529999999999 4.337160000000001 L -8.027529999999999 -23.644489999999998 z" stroke-linecap="round" />
</g>
		<g transform="matrix(1 0 0 1 -127.8749350944 212.9941908736)" id="6yXgLJNA_FtqEQ9p2D0kY"  >
<path style="stroke: rgb(0,0,0); stroke-width: 0; stroke-dasharray: none; stroke-linecap: butt; stroke-dashoffset: 0; stroke-linejoin: miter; stroke-miterlimit: 4; fill: rgb(255,255,255); fill-rule: nonzero; opacity: 1;" vector-effect="non-scaling-stroke"  transform=" translate(-3.669725, -3.669725)" d="M 0 0 L 7.33945 0 L 7.33945 7.33945 L 0 7.33945 z" stroke-linecap="round" />
</g>
		<g transform="matrix(1 0 0 1 -81.294442601 212.9941889224)" id="B74OK4kNyJTNRQoV-Y_iT"  >
<path style="stroke: rgb(0,0,0); stroke-width: 0; stroke-dasharray: none; stroke-linecap: butt; stroke-dashoffset: 0; stroke-linejoin: miter; stroke-miterlimit: 4; fill: rgb(255,255,255); fill-rule: nonzero; opacity: 1;" vector-effect="non-scaling-stroke"  transform=" translate(-3.669725, -3.669725)" d="M 0 0 L 7.33945 0 L 7.33945 7.33945 L 0 7.33945 z" stroke-linecap="round" />
</g>
		<g transform="matrix(1 0 0 1 -43.795378853 212.9941889224)" id="3CRe0BO3UPkGsjzK9IAey"  >
<path style="stroke: rgb(0,0,0); stroke-width: 0; stroke-dasharray: none; stroke-linecap: butt; stroke-dashoffset: 0; stroke-linejoin: miter; stroke-miterlimit: 4; fill: rgb(255,255,255); fill-rule: nonzero; opacity: 1;" vector-effect="non-scaling-stroke"  transform=" translate(-3.669725, -3.669725)" d="M 0 0 L 7.33945 0 L 7.33945 7.33945 L 0 7.33945 z" stroke-linecap="round" />
</g>
		<g transform="matrix(1 0 0 1 78.4684850345 98.0127526982)" id="Cw4apvYkjPMLkzepF1m-v"  >
<path style="stroke: rgb(0,0,0); stroke-width: 0; stroke-dasharray: none; stroke-linecap: butt; stroke-dashoffset: 0; stroke-linejoin: miter; stroke-miterlimit: 4; fill: rgb(255,255,255); fill-rule: nonzero; opacity: 1;" vector-effect="non-scaling-stroke"  transform=" translate(0, -0.0000019741)" d="M -13.12997 -5.11997 L -6.69404 -5.11997 L -6.69404 -5.11997 C -6.56899 -5.11997 -6.4491000000000005 -5.070110000000001 -6.36093 -4.98142 L -4.01637 -2.62323 L -4.01637 -2.62323 C -1.97879 -0.5738099999999999 1.29746 -0.45119 3.4825299999999997 -2.34258 L 6.691179999999999 -5.11996 L 13.12997 -5.11996 L 12.66788 -2.98202 L 12.66788 -2.98202 C 12.12421 -0.4666299999999999 10.42206 1.6430099999999999 8.07844 2.70612 L 5.274370000000001 3.97809 L 5.274370000000001 3.97809 C 1.694020000000001 5.6022 -2.434479999999999 5.4887 -5.9201999999999995 3.67035 L -11.00796 1.01628 z" stroke-linecap="round" />
</g>
		<g transform="matrix(1 0 0 1 -180.0031415137 203.8765544579)" id="PzXALQTW_4yp2JtzJIwlq"  >
<path style="stroke: rgb(0,0,0); stroke-width: 0; stroke-dasharray: none; stroke-linecap: butt; stroke-dashoffset: 0; stroke-linejoin: miter; stroke-miterlimit: 4; fill: rgb(255,255,255); fill-rule: nonzero; opacity: 1;" vector-effect="non-scaling-stroke"  transform=" translate(0.000005, 0)" d="M -11.40584 -12.78736 L -2.9177799999999987 -12.78736 L -2.9177799999999987 0.7404900000000012 L 3.4482700000000017 -9.07383 L 3.4482700000000017 -12.78736 L 11.405830000000002 -12.78736 L 11.405830000000002 12.78736 L 3.4482700000000017 12.78736 L 3.4482700000000017 -1.9120299999999997 L -2.9177799999999987 7.106540000000001 L -2.9177799999999987 12.78736 L -11.40584 12.78736 z" stroke-linecap="round" />
</g>
		<g transform="matrix(1 0 0 1 -149.2418476767 203.8765544579)" id="cYB0Lt7XthzhyNA28PH6g"  >
<path style="stroke: rgb(0,0,0); stroke-width: 0; stroke-dasharray: none; stroke-linecap: butt; stroke-dashoffset: 0; stroke-linejoin: miter; stroke-miterlimit: 4; fill: rgb(255,255,255); fill-rule: nonzero; opacity: 1;" vector-effect="non-scaling-stroke"  transform=" translate(0, 0)" d="M -15.11143 -12.78736 L -4.2361 -12.78736 L -0.7878200000000004 0 L 2.6604599999999996 -12.78736 L 15.111429999999999 -12.78736 L 15.111429999999999 12.78736 L 6.639239999999999 12.78736 L 6.639239999999999 -4.299299999999999 L 2.660459999999999 12.78736 L -2.909830000000001 12.78736 L -7.949620000000001 -4.299299999999999 L -7.949620000000001 12.78736 L -15.111420000000003 12.78736 z" stroke-linecap="round" />
</g>
		<g transform="matrix(1 0 0 1 -99.1333595847 203.8765544579)" id="HUHDSf50AXLfI0Z59tWsf"  >
<path style="stroke: rgb(0,0,0); stroke-width: 0; stroke-dasharray: none; stroke-linecap: butt; stroke-dashoffset: 0; stroke-linejoin: miter; stroke-miterlimit: 4; fill: rgb(255,255,255); fill-rule: nonzero; opacity: 1;" vector-effect="non-scaling-stroke"  transform=" translate(0.0000058021, 0.000005)" d="M -10.34682 -12.78736 L 6.3575800000000005 -12.78736 L 7.81927 -11.47345 L 7.81927 -11.47345 C 10.06821 -9.45187 10.6099 -6.138859999999999 9.121920000000001 -3.5062799999999994 L 8.220820000000002 -1.9120299999999995 L 9.543170000000002 0.9103800000000006 L 9.543170000000002 0.9103800000000006 C 10.855120000000001 3.71058 10.544290000000002 7.002160000000001 8.731350000000003 9.50727 L 6.357570000000003 12.78735 L -10.346829999999997 12.78735 z" stroke-linecap="round" />
</g>
		<g transform="matrix(1 0 0 1 -99.1333595847 198.2118757736)" id="1OaaHKnfhnCBbkERdHur7"  >
<path style="stroke: rgb(0,0,0); stroke-width: 0; stroke-dasharray: none; stroke-linecap: butt; stroke-dashoffset: 0; stroke-linejoin: miter; stroke-miterlimit: 4; fill: rgb(53,237,53); fill-rule: nonzero; opacity: 1;" vector-effect="non-scaling-stroke"  transform=" translate(-0.0000015338, 0)" d="M -3.00905 -1.93727 L 1.6035 -1.93727 L 2.77594 -0.7648300000000001 L 2.77594 -0.7648300000000001 C 3.056 -0.48477000000000015 3.08751 -0.0414000000000001 2.8498699999999997 0.27545 L 1.6034999999999997 1.93727 L -3.0090500000000002 1.93727 z" stroke-linecap="round" />
</g>
		<g transform="matrix(1 0 0 1 -99.1333595847 207.8648000068)" id="DKWJHlmO58_tzv-K7TUJz"  >
<path style="stroke: rgb(0,0,0); stroke-width: 0; stroke-dasharray: none; stroke-linecap: butt; stroke-dashoffset: 0; stroke-linejoin: miter; stroke-miterlimit: 4; fill: rgb(53,237,53); fill-rule: nonzero; opacity: 1;" vector-effect="non-scaling-stroke"  transform=" translate(0, 0.000005)" d="M -3.00905 -1.45967 L 1.7879999999999998 -1.45967 L 3.00905 0.01634000000000002 L 1.7879999999999998 1.45966 L -3.00905 1.45966 z" stroke-linecap="round" />
</g>
		<g transform="matrix(1 0 0 1 114.8627197173 203.4519599935)" id="VAHHlRxAzZ544VbLKK5CG"  >
<path style="stroke: rgb(0,0,0); stroke-width: 0; stroke-dasharray: none; stroke-linecap: butt; stroke-dashoffset: 0; stroke-linejoin: miter; stroke-miterlimit: 4; fill: rgb(255,255,255); fill-rule: nonzero; opacity: 1;" vector-effect="non-scaling-stroke"  transform=" translate(-0.0000014801, 0.000005)" d="M -10.16042 -12.36277 L 6.9982500000000005 -12.36277 L 8.712110000000001 -10.06906 L 8.712110000000001 -10.06906 C 10.0012 -8.34383 10.03602 -5.98566 8.798430000000002 -4.22313 L 6.998250000000001 -1.65938 L 9.609080000000002 3.41593 L 9.609080000000002 3.41593 C 10.395080000000002 4.94388 10.337500000000002 6.769159999999999 9.456740000000002 8.24452 L 6.998250000000002 12.36276 L -10.160419999999998 12.36276 z" stroke-linecap="round" />
</g>
		<g transform="matrix(1 0 0 1 -62.6461883321 203.4519606392)" id="yZODv8VXj8mjGmng7BBTl"  >
<path style="stroke: rgb(0,0,0); stroke-width: 0; stroke-dasharray: none; stroke-linecap: butt; stroke-dashoffset: 0; stroke-linejoin: miter; stroke-miterlimit: 4; fill: rgb(255,255,255); fill-rule: nonzero; opacity: 1;" vector-effect="non-scaling-stroke"  transform=" translate(-0.0000014801, 0.000005)" d="M -10.16042 -12.36277 L 6.9982500000000005 -12.36277 L 8.712110000000001 -10.06906 L 8.712110000000001 -10.06906 C 10.0012 -8.34383 10.03602 -5.98566 8.798430000000002 -4.22313 L 6.998250000000001 -1.65938 L 9.609080000000002 3.41593 L 9.609080000000002 3.41593 C 10.395080000000002 4.94388 10.337500000000002 6.769159999999999 9.456740000000002 8.24452 L 6.998250000000002 12.36276 L -10.160419999999998 12.36276 z" stroke-linecap="round" />
</g>
		<g transform="matrix(1 0 0 1 114.8627197173 198.2118729718)" id="kMVbGlcnX-W6jLWYLW2RO"  >
<path style="stroke: rgb(0,0,0); stroke-width: 0; stroke-dasharray: none; stroke-linecap: butt; stroke-dashoffset: 0; stroke-linejoin: miter; stroke-miterlimit: 4; fill: rgb(53,237,53); fill-rule: nonzero; opacity: 1;" vector-effect="non-scaling-stroke"  transform=" translate(0, 0)" d="M -3.07692 -1.93727 L 2.0000000000000004 -1.93727 L 3.0769200000000003 0 L 2 1.93727 L -3.0769200000000003 1.93727 z" stroke-linecap="round" />
</g>
		<g transform="matrix(1 0 0 1 -62.2479759241 198.2118757736)" id="8zuOGZ0GL69l9_rlTpC_9"  >
<path style="stroke: rgb(0,0,0); stroke-width: 0; stroke-dasharray: none; stroke-linecap: butt; stroke-dashoffset: 0; stroke-linejoin: miter; stroke-miterlimit: 4; fill: rgb(53,237,53); fill-rule: nonzero; opacity: 1;" vector-effect="non-scaling-stroke"  transform=" translate(0, 0)" d="M -3.07692 -1.93727 L 2.0000000000000004 -1.93727 L 3.0769200000000003 0 L 2 1.93727 L -3.0769200000000003 1.93727 z" stroke-linecap="round" />
</g>
		<g transform="matrix(1 0 0 1 114.8627197173 208.2726021889)" id="10v9udS1kEt7oNsmmNnsc"  >
<path style="stroke: rgb(0,0,0); stroke-width: 0; stroke-dasharray: none; stroke-linecap: butt; stroke-dashoffset: 0; stroke-linejoin: miter; stroke-miterlimit: 4; fill: rgb(53,237,53); fill-rule: nonzero; opacity: 1;" vector-effect="non-scaling-stroke"  transform=" translate(0, 0)" d="M -3.07692 -1.86747 L 1.2307700000000001 -1.86747 L 3.0769200000000003 0.40779999999999994 L 1.2307700000000004 1.86747 L -3.0769199999999994 1.86747 z" stroke-linecap="round" />
</g>
		<g transform="matrix(1 0 0 1 -62.2479759241 207.4570003983)" id="D7E9IUvE5YYCYhh-xPjVQ"  >
<path style="stroke: rgb(0,0,0); stroke-width: 0; stroke-dasharray: none; stroke-linecap: butt; stroke-dashoffset: 0; stroke-linejoin: miter; stroke-miterlimit: 4; fill: rgb(53,237,53); fill-rule: nonzero; opacity: 1;" vector-effect="non-scaling-stroke"  transform=" translate(0, 0)" d="M -3.07692 -1.86747 L 1.2307700000000001 -1.86747 L 3.0769200000000003 0.40779999999999994 L 1.2307700000000004 1.86747 L -3.0769199999999994 1.86747 z" stroke-linecap="round" />
</g>
		<g transform="matrix(1 0 0 1 -15.3646870924 203.4519606392)" id="9ctgBBSFpMeTyK10Ewe2e"  >
<path style="stroke: rgb(0,0,0); stroke-width: 0; stroke-dasharray: none; stroke-linecap: butt; stroke-dashoffset: 0; stroke-linejoin: miter; stroke-miterlimit: 4; fill: rgb(255,255,255); fill-rule: nonzero; opacity: 1;" vector-effect="non-scaling-stroke"  transform=" translate(0.00001, 0.000005)" d="M -11.94151 -12.36277 L -4.383169999999999 -12.36277 L -4.383169999999999 -3.3028199999999988 L 2.649470000000001 -12.36277 L 9.95035 -12.36277 L 3.54784 -3.3028199999999988 L 11.941500000000001 12.362760000000002 L 3.5478400000000008 12.362760000000002 L -1.3831499999999997 2.137570000000002 L -3.5422599999999997 5.872500000000002 L -3.5422599999999997 12.362760000000002 L -11.94152 12.362760000000002 z" stroke-linecap="round" />
</g>
		<g transform="matrix(1 0 0 1 139.0813910632 203.4519599935)" id="jYSdLpLufrKUs-BztMYQK"  >
<path style="stroke: rgb(0,0,0); stroke-width: 0; stroke-dasharray: none; stroke-linecap: butt; stroke-dashoffset: 0; stroke-linejoin: miter; stroke-miterlimit: 4; fill: rgb(255,255,255); fill-rule: nonzero; opacity: 1;" vector-effect="non-scaling-stroke"  transform=" translate(0.000005, -0.000005)" d="M -12.61062 12.36277 L -4.20354 -12.36276 L 5.14504 -12.36276 L 12.61061 12.36277 L 5.14504 12.36277 L 2.43362 7.85692 L -2.9796600000000004 7.85692 L -5.530990000000001 12.36277 z" stroke-linecap="round" />
</g>
		<g transform="matrix(1 0 0 1 9.1874414978 203.4519606392)" id="kNEViIKmjKWzdX99WDPAR"  >
<path style="stroke: rgb(0,0,0); stroke-width: 0; stroke-dasharray: none; stroke-linecap: butt; stroke-dashoffset: 0; stroke-linejoin: miter; stroke-miterlimit: 4; fill: rgb(255,255,255); fill-rule: nonzero; opacity: 1;" vector-effect="non-scaling-stroke"  transform=" translate(0.000005, -0.000005)" d="M -12.61062 12.36277 L -4.20354 -12.36276 L 5.14504 -12.36276 L 12.61061 12.36277 L 5.14504 12.36277 L 2.43362 7.85692 L -2.9796600000000004 7.85692 L -5.530990000000001 12.36277 z" stroke-linecap="round" />
</g>
		<g transform="matrix(1 0 0 1 139.0813910632 201.9007029718)" id="aq6vYhiZHFoh14btFsLo6"  >
<path style="stroke: rgb(0,0,0); stroke-width: 0; stroke-dasharray: none; stroke-linecap: butt; stroke-dashoffset: 0; stroke-linejoin: miter; stroke-miterlimit: 4; fill: rgb(53,237,53); fill-rule: nonzero; opacity: 1;" vector-effect="non-scaling-stroke"  transform=" translate(0, 0)" d="M -2.37478 3.68883 L 0.60487 -3.68883 L 2.3747800000000003 3.68883 z" stroke-linecap="round" />
</g>
		<g transform="matrix(1 0 0 1 8.5825731499 201.9007043727)" id="BT8IedpMS1TLr2VMZydn5"  >
<path style="stroke: rgb(0,0,0); stroke-width: 0; stroke-dasharray: none; stroke-linecap: butt; stroke-dashoffset: 0; stroke-linejoin: miter; stroke-miterlimit: 4; fill: rgb(53,237,53); fill-rule: nonzero; opacity: 1;" vector-effect="non-scaling-stroke"  transform=" translate(0, 0)" d="M -2.37478 3.68883 L 0.60487 -3.68883 L 2.3747800000000003 3.68883 z" stroke-linecap="round" />
</g>
		<g transform="matrix(1 0 0 1 35.18679051 203.4519606392)" id="B9A8vM7yVUOLwWSWN6yhP"  >
<path style="stroke: rgb(0,0,0); stroke-width: 0; stroke-dasharray: none; stroke-linecap: butt; stroke-dashoffset: 0; stroke-linejoin: miter; stroke-miterlimit: 4; fill: rgb(255,255,255); fill-rule: nonzero; opacity: 1;" vector-effect="non-scaling-stroke"  transform=" translate(0.0000036379, 0.000005)" d="M -9.67337 12.36276 L -9.67337 -12.36277 L 5.785869999999999 -12.36277 L 7.7672799999999995 -10.049479999999999 L 7.7672799999999995 -10.049479999999999 C 10.17625 -7.23701 10.31637 -3.131219999999999 8.10475 -0.1610599999999991 L 5.785869999999999 2.953160000000001 L -1.956030000000001 2.953160000000001 L -1.956030000000001 12.36275 z" stroke-linecap="round" />
</g>
		<g transform="matrix(1 0 0 1 36.307681591 198.2118729718)" id="2z0zjgRb77JjnOxrr2dx7"  >
<path style="stroke: rgb(0,0,0); stroke-width: 0; stroke-dasharray: none; stroke-linecap: butt; stroke-dashoffset: 0; stroke-linejoin: miter; stroke-miterlimit: 4; fill: rgb(53,237,53); fill-rule: nonzero; opacity: 1;" vector-effect="non-scaling-stroke"  transform=" translate(0, 0)" d="M -3.07692 -1.93727 L 2.0000000000000004 -1.93727 L 3.0769200000000003 0 L 2 1.93727 L -3.0769200000000003 1.93727 z" stroke-linecap="round" />
</g>
		<g transform="matrix(1.0734623619 0 0 1.0734623619 87.4737722095 203.0015155142)" id="9kMv4SfvGRdOF3TZ1kPLS"  >
<path style="stroke: rgb(0,0,0); stroke-width: 0; stroke-dasharray: none; stroke-linecap: butt; stroke-dashoffset: 0; stroke-linejoin: miter; stroke-miterlimit: 4; fill: rgb(255,255,255); fill-rule: nonzero; opacity: 1;" vector-effect="non-scaling-stroke"  transform=" translate(0, 0)" d="M 0 -11.93634 C 6.58886 -11.93634 11.93634 -6.5888599999999995 11.93634 0 C 11.93634 6.58886 6.5888599999999995 11.93634 0 11.93634 C -6.58886 11.93634 -11.93634 6.5888599999999995 -11.93634 0 C -11.93634 -6.58886 -6.5888599999999995 -11.93634 0 -11.93634 z" stroke-linecap="round" />
</g>
		<g transform="matrix(0.8624603602 0 0 1.3090513074 87.7093800312 203.4519606392)" id="0XUrnYFzvA1NtH3nHaDzf"  >
<path style="stroke: rgb(0,0,0); stroke-width: 0; stroke-dasharray: none; stroke-linecap: butt; stroke-dashoffset: 0; stroke-linejoin: miter; stroke-miterlimit: 4; fill: rgb(53,237,53); fill-rule: nonzero; opacity: 1;" vector-effect="non-scaling-stroke"  transform=" translate(0, 0)" d="M 0 -4.50928 C 2.48912 -4.50928 4.50928 -2.48912 4.50928 0 C 4.50928 2.48912 2.48912 4.50928 0 4.50928 C -2.48912 4.50928 -4.50928 2.48912 -4.50928 0 C -4.50928 -2.48912 -2.48912 -4.50928 0 -4.50928 z" stroke-linecap="round" />
</g>
		<g transform="matrix(1 0 0 1 60.7339383914 203.4519606392)" id="BD4cjuuVI-QdmaDqbCj5_"  >
<path style="stroke: rgb(0,0,0); stroke-width: 0; stroke-dasharray: none; stroke-linecap: butt; stroke-dashoffset: 0; stroke-linejoin: miter; stroke-miterlimit: 4; fill: rgb(255,255,255); fill-rule: nonzero; opacity: 1;" vector-effect="non-scaling-stroke"  transform=" translate(0, -0.000005)" d="M -11.27321 12.36277 L -11.27321 -12.36276 L 11.27321 -12.36276 L 11.27321 12.36277 L 4.604570000000001 12.36277 L 4.604570000000001 -7.177350000000002 L -1.906039999999999 -7.177350000000002 L -1.906039999999999 12.36277 z" stroke-linecap="round" />
</g>
		<g transform="matrix(1 0 0 1 -106.7603139468 -95.5232441061)" id="lsMx4R8sVb7famNMEB1CT"  >
<path style="stroke: rgb(0,0,0); stroke-width: 0; stroke-dasharray: none; stroke-linecap: butt; stroke-dashoffset: 0; stroke-linejoin: miter; stroke-miterlimit: 4; fill: rgb(53,237,53); fill-rule: nonzero; opacity: 1;" vector-effect="non-scaling-stroke"  transform=" translate(0, -0.0000100586)" d="M -68.94644 -8.94009 L -29.744679999999995 -12.35465 L -29.744679999999995 -12.35465 C -4.971409999999995 -14.512459999999999 19.985550000000003 -12.928709999999999 44.28732 -7.6566399999999994 L 68.94644 -2.3070499999999994 L 62.96494 13.289280000000002 L 28.405719999999995 7.409810000000001 L 28.405719999999995 7.409810000000001 C 10.183709999999994 4.309750000000001 -8.371120000000005 3.661270000000001 -26.765100000000004 5.481620000000001 L -64.35928000000001 9.20212 z" stroke-linecap="round" />
</g>
		<g transform="matrix(1 0 0 1 -109.072093853 -48.0717026467)" id="AIUJs_nF4bUYVhUTdGLXP"  >
<path style="stroke: rgb(0,0,0); stroke-width: 0; stroke-dasharray: none; stroke-linecap: butt; stroke-dashoffset: 0; stroke-linejoin: miter; stroke-miterlimit: 4; fill: rgb(53,237,53); fill-rule: nonzero; opacity: 1;" vector-effect="non-scaling-stroke"  transform=" translate(0, -0.0000100586)" d="M -68.94644 -8.94009 L -29.744679999999995 -12.35465 L -29.744679999999995 -12.35465 C -4.971409999999995 -14.512459999999999 19.985550000000003 -12.928709999999999 44.28732 -7.6566399999999994 L 68.94644 -2.3070499999999994 L 62.96494 13.289280000000002 L 28.405719999999995 7.409810000000001 L 28.405719999999995 7.409810000000001 C 10.183709999999994 4.309750000000001 -8.371120000000005 3.661270000000001 -26.765100000000004 5.481620000000001 L -64.35928000000001 9.20212 z" stroke-linecap="round" />
</g>
		<g transform="matrix(1 0 0 1 -104.6476053898 -145.9573994754)" id="WKKS9zt5XZgx3IMgF9OLB"  >
<path style="stroke: rgb(0,0,0); stroke-width: 0; stroke-dasharray: none; stroke-linecap: butt; stroke-dashoffset: 0; stroke-linejoin: miter; stroke-miterlimit: 4; fill: rgb(53,237,53); fill-rule: nonzero; opacity: 1;" vector-effect="non-scaling-stroke"  transform=" translate(0, -0.0000100586)" d="M -68.94644 -8.94009 L -29.744679999999995 -12.35465 L -29.744679999999995 -12.35465 C -4.971409999999995 -14.512459999999999 19.985550000000003 -12.928709999999999 44.28732 -7.6566399999999994 L 68.94644 -2.3070499999999994 L 62.96494 13.289280000000002 L 28.405719999999995 7.409810000000001 L 28.405719999999995 7.409810000000001 C 10.183709999999994 4.309750000000001 -8.371120000000005 3.661270000000001 -26.765100000000004 5.481620000000001 L -64.35928000000001 9.20212 z" stroke-linecap="round" />
</g>
		<g transform="matrix(-1.2516326347 0 0 1.1184906908 87.7093800312 -164.0177260829)" id="n1cPSoFADowZj3mGearYa"  >
<path style="stroke: rgb(0,0,0); stroke-width: 0; stroke-dasharray: none; stroke-linecap: butt; stroke-dashoffset: 0; stroke-linejoin: miter; stroke-miterlimit: 4; fill: rgb(252,134,29); fill-rule: nonzero; opacity: 1;" vector-effect="non-scaling-stroke"  transform=" translate(0.000005, 6.071e-7)" d="M -20.38679 -21.44296 L -0.8611300000000028 -13.814889999999998 L -0.8611300000000028 -13.814889999999998 C 7.622219999999997 -10.500709999999998 14.861069999999998 -4.086239999999998 19.688459999999996 4.394460000000002 L 20.386779999999995 5.621260000000002 L 20.386779999999995 7.785720000000002 L 20.386779999999995 7.785720000000002 C 20.386779999999995 14.413620000000002 15.981439999999996 20.00693 10.105489999999994 20.839520000000004 L 6.646149999999994 21.329690000000003 L 6.646149999999994 21.329690000000003 C 3.030679999999994 21.841980000000003 -0.6081200000000058 20.601150000000004 -3.353890000000006 17.919690000000003 L -5.725600000000006 15.603530000000003 L -5.725600000000006 15.603530000000003 C -8.749520000000006 12.650440000000003 -11.194020000000005 9.028420000000004 -12.905050000000006 4.965750000000003 L -17.64233000000001 -6.282419999999997 z" stroke-linecap="round" />
</g>
		<g transform="matrix(-0.9780469328 0 0 0.8587719034 87.4737722095 -164.0177253625)" id="Ac_Am-Z7mcbt1ubVfPaxN"  >
<path style="stroke: rgb(0,0,0); stroke-width: 0; stroke-dasharray: none; stroke-linecap: butt; stroke-dashoffset: 0; stroke-linejoin: miter; stroke-miterlimit: 4; fill: rgb(255,255,255); fill-rule: nonzero; opacity: 1;" vector-effect="non-scaling-stroke"  transform=" translate(0.000005, 0.000004299)" d="M -20.38679 -21.45287 L -0.6094100000000005 -13.726460000000001 L -0.6094100000000005 -13.726460000000001 C 7.71278 -10.475240000000001 14.83686 -4.138670000000001 19.62285 4.26929 L 20.386779999999998 5.61135 L 20.386779999999998 7.76152 L 20.386779999999998 7.76152 C 20.386779999999998 14.39395 16.04855 19.98751 10.269509999999999 20.80637 L 6.480819999999999 21.3432 L 6.480819999999999 21.3432 C 2.9660799999999985 21.84122 -0.5701300000000016 20.62833 -3.2588500000000016 18.002589999999998 L -5.751100000000001 15.568709999999998 L -5.751100000000001 15.568709999999998 C -8.757900000000001 12.632329999999998 -11.19529 9.015489999999998 -12.908280000000001 4.948189999999997 L -17.64234 -6.292340000000003 z" stroke-linecap="round" />
</g>
		<g transform="matrix(1.063518231 0 0 1.063518231 58.8278991919 -148.9491840903)" id="_JVpV0rXI6BX6AOVD6AiH"  >
<path style="stroke: rgb(0,0,0); stroke-width: 0; stroke-dasharray: none; stroke-linecap: butt; stroke-dashoffset: 0; stroke-linejoin: miter; stroke-miterlimit: 4; fill: rgb(53,237,53); fill-rule: nonzero; opacity: 1;" vector-effect="non-scaling-stroke"  transform=" translate(0.000005, -0.000002346)" d="M -20.38679 -21.37363 L -2.49681 -14.384569999999998 L -2.49681 -14.384569999999998 C 7.03473 -10.660889999999998 14.99803 -3.776279999999998 20.06026 5.116960000000001 L 20.386779999999998 5.69059 L 20.386779999999998 7.952780000000001 L 20.386779999999998 7.952780000000001 C 20.386779999999998 14.54916 15.532369999999998 20.1399 9.001229999999998 21.06532 L 7.807069999999998 21.23452 L 7.807069999999998 21.23452 C 3.4910099999999975 21.84608 -0.8644800000000021 20.42011 -3.9831900000000022 17.37445 L -5.604130000000002 15.79148 L -5.604130000000002 15.79148 C -8.710450000000002 12.757909999999999 -11.178830000000001 9.13383 -12.864080000000001 5.13236 L -17.64233 -6.213089999999999 z" stroke-linecap="round" />
</g>
		<g transform="matrix(0.8214504755 0 0 0.8214504755 58.8758049062 -148.507418352)" id="G5kI_cDZmpoy04rukccX1"  >
<path style="stroke: rgb(0,0,0); stroke-width: 0; stroke-dasharray: none; stroke-linecap: butt; stroke-dashoffset: 0; stroke-linejoin: miter; stroke-miterlimit: 4; fill: rgb(255,255,255); fill-rule: nonzero; opacity: 1;" vector-effect="non-scaling-stroke"  transform=" translate(0.000005, -0.000002346)" d="M -20.38679 -21.37363 L -2.49681 -14.384569999999998 L -2.49681 -14.384569999999998 C 7.03473 -10.660889999999998 14.99803 -3.776279999999998 20.06026 5.116960000000001 L 20.386779999999998 5.69059 L 20.386779999999998 7.952780000000001 L 20.386779999999998 7.952780000000001 C 20.386779999999998 14.54916 15.532369999999998 20.1399 9.001229999999998 21.06532 L 7.807069999999998 21.23452 L 7.807069999999998 21.23452 C 3.4910099999999975 21.84608 -0.8644800000000021 20.42011 -3.9831900000000022 17.37445 L -5.604130000000002 15.79148 L -5.604130000000002 15.79148 C -8.710450000000002 12.757909999999999 -11.178830000000001 9.13383 -12.864080000000001 5.13236 L -17.64233 -6.213089999999999 z" stroke-linecap="round" />
</g>
		<g transform="matrix(0.544639035 0.8386705679 -0.1216915178 0.0790273957 48.4486736951 -97.8067039607)" id="RXq7ocVhx0Gu30wPBO91n"  >
<path style="stroke: rgb(134,144,7); stroke-width: 0; stroke-dasharray: none; stroke-linecap: butt; stroke-dashoffset: 0; stroke-linejoin: miter; stroke-miterlimit: 4; fill: rgb(53,237,53); fill-rule: nonzero; opacity: 1;" vector-effect="non-scaling-stroke"  transform=" translate(0, 0)" d="M -12.21374 -12.21374 L 12.21374 -12.21374 L 12.21374 12.21374 L -12.21374 12.21374 z" stroke-linecap="round" />
</g>
		<g transform="matrix(-0.3090169944 0.9510565163 -0.1359264756 -0.0441651892 111.7857997173 -107.678623398)" id="z4lB5JITPgnOLSi4DCjVf"  >
<path style="stroke: rgb(134,144,7); stroke-width: 0; stroke-dasharray: none; stroke-linecap: butt; stroke-dashoffset: 0; stroke-linejoin: miter; stroke-miterlimit: 4; fill: rgb(53,237,53); fill-rule: nonzero; opacity: 1;" vector-effect="non-scaling-stroke"  transform=" translate(0, 0)" d="M -12.21374 -12.21374 L 12.21374 -12.21374 L 12.21374 12.21374 L -12.21374 12.21374 z" stroke-linecap="round" />
</g>
		<g transform="matrix(-0.8191520443 0.5735764364 -0.1046845202 -0.1495049889 122.389550639 -95.1271463445)" id="sVw_grDtV2IJuQyNyD6F-"  >
<path style="stroke: rgb(134,144,7); stroke-width: 0; stroke-dasharray: none; stroke-linecap: butt; stroke-dashoffset: 0; stroke-linejoin: miter; stroke-miterlimit: 4; fill: rgb(53,237,53); fill-rule: nonzero; opacity: 1;" vector-effect="non-scaling-stroke"  transform=" translate(0, 0)" d="M -12.21374 -12.21374 L 12.21374 -12.21374 L 12.21374 12.21374 L -12.21374 12.21374 z" stroke-linecap="round" />
</g>
		<g transform="matrix(-0.9986295348 0.0523359562 -0.0095519344 -0.1822617651 64.339039538 -48.1431040516)" id="4dLGjuaHUlaoSv5YV_NaT"  >
<path style="stroke: rgb(134,144,7); stroke-width: 0; stroke-dasharray: none; stroke-linecap: butt; stroke-dashoffset: 0; stroke-linejoin: miter; stroke-miterlimit: 4; fill: rgb(255,243,18); fill-rule: nonzero; opacity: 1;" vector-effect="non-scaling-stroke"  transform=" translate(0, 0)" d="M -12.21374 -12.21374 L 12.21374 -12.21374 L 12.21374 12.21374 L -12.21374 12.21374 z" stroke-linecap="round" />
</g>
		<g transform="matrix(-0.9986295348 0.0523359562 -0.0095519344 -0.1822617651 75.160105873 -85.9357650765)" id="lCuGzF2lje-mgKwNhM_df"  >
<path style="stroke: rgb(134,144,7); stroke-width: 0; stroke-dasharray: none; stroke-linecap: butt; stroke-dashoffset: 0; stroke-linejoin: miter; stroke-miterlimit: 4; fill: rgb(255,243,18); fill-rule: nonzero; opacity: 1;" vector-effect="non-scaling-stroke"  transform=" translate(0, 0)" d="M -12.21374 -12.21374 L 12.21374 -12.21374 L 12.21374 12.21374 L -12.21374 12.21374 z" stroke-linecap="round" />
</g>
		<g transform="matrix(-0.4067366431 -0.9135454576 0.1667329093 -0.074234274 94.6900788172 -106.8808125935)" id="beMP7Zf_lZtGoVycvtHwF"  >
<path style="stroke: rgb(134,144,7); stroke-width: 0; stroke-dasharray: none; stroke-linecap: butt; stroke-dashoffset: 0; stroke-linejoin: miter; stroke-miterlimit: 4; fill: rgb(255,243,18); fill-rule: nonzero; opacity: 1;" vector-effect="non-scaling-stroke"  transform=" translate(0, 0)" d="M -12.21374 -12.21374 L 12.21374 -12.21374 L 12.21374 12.21374 L -12.21374 12.21374 z" stroke-linecap="round" />
</g>
		<g transform="matrix(-0.5 0.8660254038 -0.1580599344 -0.0912559456 74.339039538 -38.1431040516)" id="w3eKBcD6uLxx5K7EeZ_Uu"  >
<path style="stroke: rgb(134,144,7); stroke-width: 0; stroke-dasharray: none; stroke-linecap: butt; stroke-dashoffset: 0; stroke-linejoin: miter; stroke-miterlimit: 4; fill: rgb(255,243,18); fill-rule: nonzero; opacity: 1;" vector-effect="non-scaling-stroke"  transform=" translate(0, 0)" d="M -12.21374 -12.21374 L 12.21374 -12.21374 L 12.21374 12.21374 L -12.21374 12.21374 z" stroke-linecap="round" />
</g>
		<g transform="matrix(0.544639035 0.8386705679 -0.1216915178 0.0790273957 29.9364490932 -60.4349732748)" id="5gEnxlACFmuj7Kus3ozmR"  >
<path style="stroke: rgb(134,144,7); stroke-width: 0; stroke-dasharray: none; stroke-linecap: butt; stroke-dashoffset: 0; stroke-linejoin: miter; stroke-miterlimit: 4; fill: rgb(53,237,53); fill-rule: nonzero; opacity: 1;" vector-effect="non-scaling-stroke"  transform=" translate(0, 0)" d="M -12.21374 -12.21374 L 12.21374 -12.21374 L 12.21374 12.21374 L -12.21374 12.21374 z" stroke-linecap="round" />
</g>
		<g transform="matrix(0.6946583705 0.7193398003 -0.1606030853 0.1550925966 95.6941216373 -39.3115755252)" id="SXrtSB3YQBm29be4CwbKV"  >
<path style="stroke: rgb(134,144,7); stroke-width: 0; stroke-dasharray: none; stroke-linecap: butt; stroke-dashoffset: 0; stroke-linejoin: miter; stroke-miterlimit: 4; fill: rgb(53,237,53); fill-rule: nonzero; opacity: 1;" vector-effect="non-scaling-stroke"  transform=" translate(0, 0)" d="M -12.21374 -12.21374 L 12.21374 -12.21374 L 12.21374 12.21374 L -12.21374 12.21374 z" stroke-linecap="round" />
</g>
		<g transform="matrix(0.2079116908 0.9781476007 -0.1694124767 0.0360097336 108.0196119744 -57.4772702487)" id="fuU4DMWt7EgEiHjCcopwL"  >
<path style="stroke: rgb(134,144,7); stroke-width: 0; stroke-dasharray: none; stroke-linecap: butt; stroke-dashoffset: 0; stroke-linejoin: miter; stroke-miterlimit: 4; fill: rgb(53,237,53); fill-rule: nonzero; opacity: 1;" vector-effect="non-scaling-stroke"  transform=" translate(0, 0)" d="M -12.21374 -12.21374 L 12.21374 -12.21374 L 12.21374 12.21374 L -12.21374 12.21374 z" stroke-linecap="round" />
</g>
		<g transform="matrix(-0.6946583705 0.7193398003 -0.1245876768 -0.120312921 121.1121092549 -40.1487433892)" id="nA2bHjl6IeZFkTFy4-sNQ"  >
<path style="stroke: rgb(134,144,7); stroke-width: 0; stroke-dasharray: none; stroke-linecap: butt; stroke-dashoffset: 0; stroke-linejoin: miter; stroke-miterlimit: 4; fill: rgb(53,237,53); fill-rule: nonzero; opacity: 1;" vector-effect="non-scaling-stroke"  transform=" translate(0, 0)" d="M -12.21374 -12.21374 L 12.21374 -12.21374 L 12.21374 12.21374 L -12.21374 12.21374 z" stroke-linecap="round" />
</g>
		<g transform="matrix(1 0 0 1 37.1461801674 -112.9151834027)" id="aF3klsGxMTjOTr_3IIbLk"  >
<path style="stroke: rgb(0,0,0); stroke-width: 0; stroke-dasharray: none; stroke-linecap: butt; stroke-dashoffset: 0; stroke-linejoin: miter; stroke-miterlimit: 4; fill: rgb(15,0,140); fill-rule: nonzero; opacity: 1;" vector-effect="non-scaling-stroke"  transform=" translate(-13.30275, -13.30275)" d="M 13.30275 0 C 20.64587 0 26.6055 5.95963 26.6055 13.30275 C 26.6055 20.64587 20.64587 26.6055 13.30275 26.6055 C 5.95963 26.6055 0 20.64587 0 13.30275 C 0 5.95963 5.95963 0 13.30275 0 z" stroke-linecap="round" />
</g>
		<g transform="matrix(1.1899637475 0 0 1.1899637475 112.6281513052 -32.2419121698)" id="NmaOwsdoczrLbq7O1G8Cu"  >
<path style="stroke: rgb(0,0,0); stroke-width: 0; stroke-dasharray: none; stroke-linecap: butt; stroke-dashoffset: 0; stroke-linejoin: miter; stroke-miterlimit: 4; fill: rgb(15,0,140); fill-rule: nonzero; opacity: 1;" vector-effect="non-scaling-stroke"  transform=" translate(0, 0)" d="M 0 -13.30275 C 7.34312 -13.30275 13.30275 -7.34312 13.30275 0 C 13.30275 7.34312 7.34312 13.30275 0 13.30275 C -7.34312 13.30275 -13.30275 7.34312 -13.30275 0 C -13.30275 -7.34312 -7.34312 -13.30275 0 -13.30275 z" stroke-linecap="round" />
</g>
		<g transform="matrix(1 0 0 1 118.0050482373 -123.9924519877)" id="z2afL3eCoPFlMjbPRcKjy"  >
<path style="stroke: rgb(0,0,0); stroke-width: 0; stroke-dasharray: none; stroke-linecap: butt; stroke-dashoffset: 0; stroke-linejoin: miter; stroke-miterlimit: 4; fill: rgb(53,237,53); fill-rule: nonzero; opacity: 1;" vector-effect="non-scaling-stroke"  transform=" translate(-13.30275, -13.30275)" d="M 13.30275 0 C 20.64587 0 26.6055 5.95963 26.6055 13.30275 C 26.6055 20.64587 20.64587 26.6055 13.30275 26.6055 C 5.95963 26.6055 0 20.64587 0 13.30275 C 0 5.95963 5.95963 0 13.30275 0 z" stroke-linecap="round" />
</g>
		<g transform="matrix(1 0 0 1 136.7066110632 -99.900929506)" id="Y38zLEzgSJFPDqjXPIiB5"  >
<path style="stroke: rgb(0,0,0); stroke-width: 0; stroke-dasharray: none; stroke-linecap: butt; stroke-dashoffset: 0; stroke-linejoin: miter; stroke-miterlimit: 4; fill: rgb(15,0,140); fill-rule: nonzero; opacity: 1;" vector-effect="non-scaling-stroke"  transform=" translate(-13.30275, -13.30275)" d="M 13.30275 0 C 20.64587 0 26.6055 5.95963 26.6055 13.30275 C 26.6055 20.64587 20.64587 26.6055 13.30275 26.6055 C 5.95963 26.6055 0 20.64587 0 13.30275 C 0 5.95963 5.95963 0 13.30275 0 z" stroke-linecap="round" />
</g>
		<g transform="matrix(1 0 0 1 134.4148592549 -58.393366107)" id="EPVwAeQfbWT2xziOOhbau"  >
<path style="stroke: rgb(0,0,0); stroke-width: 0; stroke-dasharray: none; stroke-linecap: butt; stroke-dashoffset: 0; stroke-linejoin: miter; stroke-miterlimit: 4; fill: rgb(53,237,53); fill-rule: nonzero; opacity: 1;" vector-effect="non-scaling-stroke"  transform=" translate(-13.30275, -13.30275)" d="M 13.30275 0 C 20.64587 0 26.6055 5.95963 26.6055 13.30275 C 26.6055 20.64587 20.64587 26.6055 13.30275 26.6055 C 5.95963 26.6055 0 20.64587 0 13.30275 C 0 5.95963 5.95963 0 13.30275 0 z" stroke-linecap="round" />
</g>
		<g transform="matrix(0.8758133012 0 0 0.8758133012 81.056733633 -50.4040434177)" id="1xAD0h64Q-qh9LH5JlUEm"  >
<path style="stroke: rgb(0,0,0); stroke-width: 0; stroke-dasharray: none; stroke-linecap: butt; stroke-dashoffset: 0; stroke-linejoin: miter; stroke-miterlimit: 4; fill: rgb(53,237,53); fill-rule: nonzero; opacity: 1;" vector-effect="non-scaling-stroke"  transform=" translate(0, 0)" d="M 0 -13.30275 C 7.34312 -13.30275 13.30275 -7.34312 13.30275 0 C 13.30275 7.34312 7.34312 13.30275 0 13.30275 C -7.34312 13.30275 -13.30275 7.34312 -13.30275 0 C -13.30275 -7.34312 -7.34312 -13.30275 0 -13.30275 z" stroke-linecap="round" />
</g>
		<g transform="matrix(1.2577666261 0 0 1.2577666261 44.0021831573 -49.2264489483)" id="RCLnsxyEtJwlNsjPB299X"  >
<path style="stroke: rgb(0,0,0); stroke-width: 0; stroke-dasharray: none; stroke-linecap: butt; stroke-dashoffset: 0; stroke-linejoin: miter; stroke-miterlimit: 4; fill: rgb(53,237,53); fill-rule: nonzero; opacity: 1;" vector-effect="non-scaling-stroke"  transform=" translate(0, 0)" d="M 0 -13.30275 C 7.34312 -13.30275 13.30275 -7.34312 13.30275 0 C 13.30275 7.34312 7.34312 13.30275 0 13.30275 C -7.34312 13.30275 -13.30275 7.34312 -13.30275 0 C -13.30275 -7.34312 -7.34312 -13.30275 0 -13.30275 z" stroke-linecap="round" />
</g>
		<g transform="matrix(1.465737952 0 0 1.465737952 100.0079622526 -85.9357650765)" id="iwT3R06EPlMNdQtN0Yltq"  >
<path style="stroke: rgb(0,0,0); stroke-width: 0; stroke-dasharray: none; stroke-linecap: butt; stroke-dashoffset: 0; stroke-linejoin: miter; stroke-miterlimit: 4; fill: rgb(53,237,53); fill-rule: nonzero; opacity: 1;" vector-effect="non-scaling-stroke"  transform=" translate(0, 0)" d="M 0 -13.30275 C 7.34312 -13.30275 13.30275 -7.34312 13.30275 0 C 13.30275 7.34312 7.34312 13.30275 0 13.30275 C -7.34312 13.30275 -13.30275 7.34312 -13.30275 0 C -13.30275 -7.34312 -7.34312 -13.30275 0 -13.30275 z" stroke-linecap="round" />
</g>
		<g transform="matrix(1 0 0 1 65.4317868342 -25.7204298319)" id="M-sP3ofE4yh-KiV0Ptn7x"  >
<path style="stroke: rgb(0,0,0); stroke-width: 0; stroke-dasharray: none; stroke-linecap: butt; stroke-dashoffset: 0; stroke-linejoin: miter; stroke-miterlimit: 4; fill: rgb(252,134,29); fill-rule: nonzero; opacity: 1;" vector-effect="non-scaling-stroke"  transform=" translate(-13.30275, -13.30275)" d="M 13.30275 0 C 20.64587 0 26.6055 5.95963 26.6055 13.30275 C 26.6055 20.64587 20.64587 26.6055 13.30275 26.6055 C 5.95963 26.6055 0 20.64587 0 13.30275 C 0 5.95963 5.95963 0 13.30275 0 z" stroke-linecap="round" />
</g>
		<g transform="matrix(1.1202242693 0 0 1.1202242693 59.7622208803 -86.598179506)" id="QCfH8pSXP9pYi7Ciwf9eD"  >
<path style="stroke: rgb(0,0,0); stroke-width: 0; stroke-dasharray: none; stroke-linecap: butt; stroke-dashoffset: 0; stroke-linejoin: miter; stroke-miterlimit: 4; fill: rgb(53,237,53); fill-rule: nonzero; opacity: 1;" vector-effect="non-scaling-stroke"  transform=" translate(0, 0)" d="M 0 -13.30275 C 7.34312 -13.30275 13.30275 -7.34312 13.30275 0 C 13.30275 7.34312 7.34312 13.30275 0 13.30275 C -7.34312 13.30275 -13.30275 7.34312 -13.30275 0 C -13.30275 -7.34312 -7.34312 -13.30275 0 -13.30275 z" stroke-linecap="round" />
</g>
		<g transform="matrix(0.7969746106 0 0 0.7969746106 21.7980609668 -68.2100567461)" id="yGGuEA00pnXLn_8L_0Dt3"  >
<path style="stroke: rgb(0,0,0); stroke-width: 0; stroke-dasharray: none; stroke-linecap: butt; stroke-dashoffset: 0; stroke-linejoin: miter; stroke-miterlimit: 4; fill: rgb(53,237,53); fill-rule: nonzero; opacity: 1;" vector-effect="non-scaling-stroke"  transform=" translate(0, 0)" d="M 0 -13.30275 C 7.34312 -13.30275 13.30275 -7.34312 13.30275 0 C 13.30275 7.34312 7.34312 13.30275 0 13.30275 C -7.34312 13.30275 -13.30275 7.34312 -13.30275 0 C -13.30275 -7.34312 -7.34312 -13.30275 0 -13.30275 z" stroke-linecap="round" />
</g>
		<g transform="matrix(0.7969746106 0 0 0.7969746106 89.0704390357 -120.3480821677)" id="06QZJ7vERvpZKV75qL5va"  >
<path style="stroke: rgb(0,0,0); stroke-width: 0; stroke-dasharray: none; stroke-linecap: butt; stroke-dashoffset: 0; stroke-linejoin: miter; stroke-miterlimit: 4; fill: rgb(252,134,29); fill-rule: nonzero; opacity: 1;" vector-effect="non-scaling-stroke"  transform=" translate(0, 0)" d="M 0 -13.30275 C 7.34312 -13.30275 13.30275 -7.34312 13.30275 0 C 13.30275 7.34312 7.34312 13.30275 0 13.30275 C -7.34312 13.30275 -13.30275 7.34312 -13.30275 0 C -13.30275 -7.34312 -7.34312 -13.30275 0 -13.30275 z" stroke-linecap="round" />
</g>
</g>
</g>
</svg>